<svg xmlns="http://www.w3.org/2000/svg" viewBox="0 0 64 64" width="64" height="64">
  <defs>
    <linearGradient id="g" x1="0" y1="0" x2="1" y2="1">
      <stop offset="0" stop-color="#4CAF7A"/>
      <stop offset="1" stop-color="#1A6B42"/>
    </linearGradient>
  </defs>
  <!-- Triangle with gold border -->
  <path d="M32 5 L59 55 L5 55 Z" fill="url(#g)" stroke="#C8A84B" stroke-width="3" stroke-linejoin="round"/>
  <!-- Tooth -->
  <path d="M32 22c-4 0-6-2-9-2s-5 2-5 7c0 6 2 9 3 13c.8 3 1.5 6 3 6c1.6 0 2-2.5 2.8-5c.6-1.8 1.4-3 3.2-3s2.6 1.2 3.2 3c.8 2.5 1.2 5 2.8 5c1.5 0 2.2-3 3-6c1-4 3-7 3-13c0-5-2-7-5-7s-5 2-9 2z" fill="#FFFFFF"/>
</svg>
